<?xml version="1.0" encoding="UTF-8"?>
<svg id="Layer_1" data-name="Layer 1" xmlns="http://www.w3.org/2000/svg" viewBox="0 0 310 382">
    <defs>
        <style>.cls-1{fill:#fff;}</style>
    </defs>
    <path d="M155,0,0,148V382H310V148Z"/>
    <path class="cls-1"
          d="M24.86,239.62c.23,5,3.33,6.62,8,6.62,3.34,0,6.8-1.2,6.8-4.36,0-3.75-6.08-4.47-12.23-6.2S15,231.21,15,223.4c0-9.3,9.35-12.94,17.34-12.94,8.47,0,17,4.12,17,13.72H38.33c.17-3.87-3.46-5.13-6.86-5.13-2.38,0-5.36.83-5.36,3.65,0,3.27,6.14,3.86,12.33,5.6s12.34,4.58,12.34,12.27c0,10.79-9.18,14.24-18.53,14.24-9.78,0-18.43-4.28-18.48-15.19Z"/>
    <polygon class="cls-1"
             points="98.64 220.9 85.94 220.9 85.94 253.92 74.85 253.92 74.85 220.9 62.15 220.9 62.15 211.36 98.64 211.36 98.64 220.9"/>
    <path class="cls-1"
          d="M110.94,211.36h21.7c7.51,0,14.9,3.4,14.9,12,0,4.58-2.2,8.94-6.67,10.66v.12c4.53,1.08,5.84,6.14,6.19,10.2.12,1.78.31,8,1.79,9.59h-11c-1-1.43-1.14-5.6-1.25-6.79-.3-4.29-1-8.7-6.21-8.7H122v15.49H110.94ZM122,229.84h9.29c3.35,0,5.13-1.78,5.13-5s-2.5-4.58-5.6-4.58H122Z"/>
    <polygon class="cls-1"
             points="161.16 211.36 195.07 211.36 195.07 220.25 172.24 220.25 172.24 227.7 193.12 227.7 193.12 236.28 172.24 236.28 172.24 244.39 195.67 244.39 195.67 253.92 161.16 253.92 161.16 211.36"/>
    <polygon class="cls-1"
             points="207.97 211.36 241.89 211.36 241.89 220.25 219.06 220.25 219.06 227.7 239.92 227.7 239.92 236.28 219.06 236.28 219.06 244.39 242.49 244.39 242.49 253.92 207.97 253.92 207.97 211.36"/>
    <polygon class="cls-1"
             points="291.1 220.9 278.4 220.9 278.4 253.92 267.31 253.92 267.31 220.9 254.62 220.9 254.62 211.36 291.1 211.36 291.1 220.9"/>
    <polygon class="cls-1"
             points="17.44 316.57 33.02 316.57 40.01 343.63 40.13 343.63 47.12 316.57 62.7 316.57 62.7 357.15 52.74 357.15 52.74 326.34 52.64 326.34 44.11 357.15 36.03 357.15 27.51 326.34 27.39 326.34 27.39 357.15 17.44 357.15 17.44 316.57"/>
    <path class="cls-1"
          d="M85,316.57H95.73l15.18,40.58h-11l-2.5-7.27H83.23l-2.56,7.27H69.81ZM85.67,342h9.22L90.4,327.82h-.12Z"/>
    <path class="cls-1"
          d="M120.25,316.57H141c7.17,0,14.21,3.24,14.21,11.42,0,4.38-2.1,8.54-6.36,10.19v.1c4.31,1,5.57,5.86,5.91,9.73.11,1.7.29,7.67,1.71,9.14H146c-.91-1.36-1.08-5.34-1.19-6.47-.28-4.1-1-8.31-5.91-8.31h-8v14.78H120.25Zm10.58,17.62h8.87c3.19,0,4.89-1.7,4.89-4.77S142.2,325,139.25,325h-8.42Z"/>
    <polygon class="cls-1"
             points="165.76 316.57 176.33 316.57 176.33 332.15 189.7 316.57 202.83 316.57 187.82 332.54 204.7 357.15 191.58 357.15 180.65 340.11 176.33 344.65 176.33 357.15 165.76 357.15 165.76 316.57"/>
    <polygon class="cls-1"
             points="214.05 316.57 246.39 316.57 246.39 325.04 224.62 325.04 224.62 332.15 244.52 332.15 244.52 340.33 224.62 340.33 224.62 348.06 246.96 348.06 246.96 357.15 214.05 357.15 214.05 316.57"/>
    <polygon class="cls-1"
             points="291.1 325.66 278.99 325.66 278.99 357.15 268.42 357.15 268.42 325.66 256.31 325.66 256.31 316.57 291.1 316.57 291.1 325.66"/>
    <path class="cls-1"
          d="M17.44,155.14H36.56c13.63,0,21.79,8.27,21.79,22,0,14.57-8.28,22.41-21.79,22.41H17.44ZM29,189.63H34.5c8.78-.19,12.27-3.62,12.27-12.52,0-8.09-4.36-12-12.27-12H29Z"/>
    <path class="cls-1"
          d="M98.44,154.21c14,0,21.92,10.27,21.92,23.16s-7.92,23.16-21.92,23.16-21.92-10.28-21.92-23.16,7.91-23.16,21.92-23.16m0,36.35c7.47,0,10.33-6.59,10.33-13.19s-2.86-13.21-10.33-13.21S88.1,170.77,88.1,177.37,91,190.56,98.44,190.56"/>
    <polygon class="cls-1"
             points="165.85 199.59 152.53 199.59 138.52 155.14 150.6 155.14 159.31 188.2 159.44 188.2 168.16 155.14 180.24 155.14 165.85 199.59"/>
    <polygon class="cls-1"
             points="198.4 155.14 233.83 155.14 233.83 164.41 209.98 164.41 209.98 172.2 231.78 172.2 231.78 181.17 209.98 181.17 209.98 189.63 234.46 189.63 234.46 199.59 198.4 199.59 198.4 155.14"/>
    <path class="cls-1"
          d="M252.88,155.14h22.66c7.84,0,15.56,3.54,15.56,12.51,0,4.8-2.3,9.34-7,11.14v.13c4.73,1.12,6.1,6.41,6.47,10.65.13,1.87.32,8.41,1.87,10H281c-1-1.5-1.19-5.85-1.31-7.1-.32-4.48-1.06-9.09-6.47-9.09h-8.78v16.19H252.88Zm11.58,19.3h9.71c3.48,0,5.35-1.88,5.35-5.24s-2.62-4.78-5.85-4.78h-9.21Z"/>
    <path class="cls-1" d="M17.44,264H28.6v33.22h20v9.59H17.44Z"/>
    <path class="cls-1" d="M68.52,264H79.68v42.81H68.52Z"/>
    <path class="cls-1" d="M135.26,273.55H122.48v33.21H111.33V273.55H98.56V264h36.7Z"/>
    <path class="cls-1" d="M188,273.55H175.25v33.21H164.09V273.55H151.32V264H188Z"/>
    <path class="cls-1" d="M205.77,264h11.15v33.22h20v9.59H205.77Z"/>
    <path class="cls-1" d="M256.39,264H290.5v8.94h-23v7.49h21V289h-21v8.15H291.1v9.59H256.39Z"/>
</svg>