<svg id="Layer_1" data-name="Layer 1" xmlns="http://www.w3.org/2000/svg" viewBox="0 0 349.8 430.8"><defs><style>.cls-1{fill:#fff;}</style></defs><title>Artboard 1</title><polygon points="174.7 430.92 349.7 430.92 349.7 166.71 174.7 -0.12 -0.3 168.69 -0.3 430.92 174.7 430.92"/><path class="cls-1" d="M29.72,268.64c.27,5.67,3.77,7.49,9.11,7.49,3.77,0,7.68-1.35,7.68-4.93,0-4.25-6.87-5.06-13.82-7s-14.1-5.06-14.1-13.9c0-10.52,10.59-14.63,19.63-14.63,9.58,0,19.22,4.65,19.29,15.51H45c.19-4.38-3.92-5.8-7.76-5.8-2.7,0-6.07.95-6.07,4.12,0,3.7,7,4.38,14,6.33s14,5.2,14,13.9c0,12.21-10.39,16.11-21,16.11-11.06,0-20.85-4.85-20.91-17.19Z"/><path class="cls-1" d="M113.64,247.46H99.27v37.37H86.73V247.46H72.36V236.67h41.28Z"/><path class="cls-1" d="M127.56,236.67h24.55c8.5,0,16.86,3.84,16.86,13.56,0,5.19-2.49,10.11-7.55,12.07v.13c5.13,1.22,6.61,6.95,7,11.54.14,2,.34,9.1,2,10.86h-12.4c-1.08-1.62-1.28-6.34-1.42-7.69-.33-4.86-1.15-9.84-7-9.84H140.1v17.53H127.56Zm12.54,20.91h10.53c3.78,0,5.8-2,5.8-5.67s-2.83-5.19-6.34-5.19h-10Z"/><path class="cls-1" d="M184.38,236.67h38.37v10.05H196.92v8.43h23.61v9.71H196.92V274h26.5v10.8h-39Z"/><path class="cls-1" d="M237.35,236.67h38.37v10.05H249.89v8.43H273.5v9.71H249.89V274H276.4v10.8h-39Z"/><path class="cls-1" d="M331.6,247.46H317.23v37.37H304.68V247.46H290.32V236.67H331.6Z"/><path class="cls-1" d="M18.81,297.08H36.43l7.91,30.61h.13l7.92-30.61H70V343H58.75V308.14h-.13L49,343H39.84L30.2,308.14h-.13V343H18.81Z"/><path class="cls-1" d="M97.76,297.08h12.16L127.09,343H114.61l-2.83-8.23h-16L92.87,343H80.58Zm.78,28.82H109l-5.08-16.09h-.13Z"/><path class="cls-1" d="M137.66,297.08h23.42c8.1,0,16.08,3.67,16.08,12.92,0,5-2.38,9.66-7.21,11.53v.11c4.89,1.17,6.31,6.63,6.69,11,.13,1.92.33,8.68,1.93,10.35H166.74c-1-1.54-1.22-6.05-1.35-7.33-.33-4.64-1.1-9.39-6.69-9.39h-9.07V343h-12Zm12,19.93h10c3.61,0,5.53-1.92,5.53-5.39s-2.7-5-6-5h-9.52Z"/><path class="cls-1" d="M189.15,297.08h12V314.7l15.12-17.62h14.86l-17,18.07L233.21,343H218.35L206,323.71l-4.89,5.14V343h-12Z"/><path class="cls-1" d="M243.78,297.08h36.6v9.58H255.74v8h22.51V324H255.74v8.75H281V343H243.78Z"/><path class="cls-1" d="M331,307.37h-13.7V343h-12V307.37H291.59V297.08H331Z"/><path class="cls-1" d="M21.34,173.06H43c15.43,0,24.66,9.36,24.66,24.94,0,16.48-9.37,25.35-24.66,25.35H21.34Zm13.1,39h6.2c9.93-.21,13.88-4.09,13.88-14.16,0-9.15-4.94-13.59-13.88-13.59h-6.2Z"/><path class="cls-1" d="M113,172c15.84,0,24.79,11.62,24.79,26.2s-9,26.21-24.79,26.21S88.17,212.79,88.17,198.2,97.13,172,113,172Zm0,41.14c8.45,0,11.69-7.47,11.69-14.94s-3.24-14.93-11.69-14.93-11.7,7.47-11.7,14.93S104.52,213.14,113,213.14Z"/><path class="cls-1" d="M189.25,223.35H174.18l-15.85-50.29H172l9.87,37.4H182l9.86-37.4h13.66Z"/><path class="cls-1" d="M226.08,173.06h40.09v10.49h-27v8.8h24.66V202.5H239.18v9.58h27.69v11.27H226.08Z"/><path class="cls-1" d="M287.43,173.06h25.64c8.87,0,17.61,4,17.61,14.16,0,5.42-2.6,10.56-7.89,12.6V200c5.35,1.27,6.9,7.25,7.32,12,.15,2.12.36,9.51,2.11,11.34h-13c-1.13-1.69-1.34-6.62-1.48-8-.36-5.07-1.2-10.28-7.33-10.28h-9.93v18.31h-13.1Zm13.1,21.83h11c3.94,0,6.06-2.11,6.06-5.92s-3-5.42-6.62-5.42H300.53Z"/><path class="cls-1" d="M18.43,355.17H38.37c7.35-.12,15.41,1.78,15.41,10.68a9.58,9.58,0,0,1-5.61,8.59,10.14,10.14,0,0,1,7.35,10.1c0,10.15-7.47,13.25-16.61,13.25H18.43Zm11.11,16.77h8.6c1.9,0,4.53-1,4.53-4.06s-2.2-4.12-4.53-4.12h-8.6Zm0,16.95h8.9c3.51,0,6-1.25,6-4.77,0-3.76-2.62-5-6-5h-8.9Z"/><path class="cls-1" d="M73.11,355.16h34v8.9H84.22v7.46h20.9v8.6H84.22v8.12h23.47v9.55H73.11Z"/><path class="cls-1" d="M129.08,355.16h11.11v42.63H129.08Z"/><path class="cls-1" d="M188.61,383.84c0,9.56-4.88,14.4-14.91,14.4-11.29,0-14.93-6.51-14.93-16v-1.86h10.45v3.95c0,2.8,1.55,4.35,4.3,4.35,2.56,0,4-1.43,4-5.55V354.71h11.09Z"/><path class="cls-1" d="M208.27,355.16h11.11v42.63H208.27Z"/><path class="cls-1" d="M237.45,355.16h11.41l14.8,26.27h.12V355.16h10.46v42.63H262.83L248,371.22h-.12v26.57H237.45Z"/><path class="cls-1" d="M331,397.79h-7.17l-.65-4.66c-2.93,4.12-7.94,5.56-11.89,5.56-12.9,0-21.26-9.86-21.26-22.22s8.36-22.21,21.26-22.21c8.85,0,18.27,4.72,19.3,15.41H319.43c-.35-3.65-3.93-5.86-8.41-5.86-7.17,0-9.91,6.33-9.91,12.66s2.74,12.66,9.91,12.66c5.49,0,9.19-2.56,9.79-6.45h-7.76v-8.24H331Z"/></svg>