<?xml version="1.0" encoding="utf-8"?>
<!-- Generator: Adobe Illustrator 22.1.0, SVG Export Plug-In . SVG Version: 6.00 Build 0)  -->
<!DOCTYPE svg PUBLIC "-//W3C//DTD SVG 1.1//EN" "http://www.w3.org/Graphics/SVG/1.1/DTD/svg11.dtd">
<svg version="1.1" id="layer_1" xmlns="http://www.w3.org/2000/svg" xmlns:xlink="http://www.w3.org/1999/xlink" x="0px"
	 y="0px" viewBox="0 0 124.1 153.1" style="enable-background:new 0 0 124.1 153.1;" xml:space="preserve">
<style type="text/css">
	.st0{fill:#FFFFFF;}
</style>
<g>
	<polygon points="61.9,0 0.3,59.8 0,152.7 123.9,153.1 124.1,59.3 	"/>
	<g>
		<path class="st0" d="M109.2,75.8h3.2c2,0,2.2,1.7,2.3,3.3c0,0.4,0.1,2,0.5,2.6h4.1c-0.6-0.6-0.6-3-0.7-3.6
			c-0.1-1.5-0.6-3.4-2.3-3.9v0c1.7-0.7,2.5-2.3,2.5-4c0-3.2-2.8-4.5-5.6-4.5H105v16.1h4.2V75.8z M109.2,69h3.3
			c1.2,0,2.1,0.5,2.1,1.7c0,1.2-0.7,1.9-1.9,1.9h-3.5V69z"/>
		<polygon class="st0" points="99.9,112.6 99.9,109.5 88.2,109.5 88.2,124.2 100.1,124.2 100.1,120.9 92,120.9 92,118.1 99.2,118.1 
			99.2,115.1 92,115.1 92,112.6 		"/>
		<polygon class="st0" points="98.6,91.3 98.6,88.1 86.3,88.1 86.3,103.5 98.8,103.5 98.8,100.1 90.3,100.1 90.3,97.2 97.8,97.2 
			97.8,94 90.3,94 90.3,91.3 		"/>
		<polygon class="st0" points="93.5,78.1 84.6,78.1 84.6,75 92.5,75 92.5,71.8 84.6,71.8 84.6,69 93.2,69 93.2,65.6 80.4,65.6 
			80.4,81.7 93.5,81.7 		"/>
		<polygon class="st0" points="68,109.5 68,124.2 71.8,124.2 71.8,119.7 73.4,118 77.3,124.2 82.1,124.2 76,115.3 81.4,109.5 
			76.7,109.5 71.8,115.1 71.8,109.5 		"/>
		<polygon class="st0" points="79.4,91.3 79.4,88.1 67.1,88.1 67.1,103.5 79.6,103.5 79.6,100.1 71.2,100.1 71.2,97.2 78.7,97.2 
			78.7,94 71.2,94 71.2,91.3 		"/>
		<polygon class="st0" points="64.3,81.7 69.5,65.6 65.1,65.6 62,77.6 61.9,77.6 58.8,65.6 54.4,65.6 59.5,81.7 		"/>
		<path class="st0" d="M46.6,103.5h4v-5.6h3c1.9,0,2.1,1.6,2.2,3.2c0,0.4,0.1,1.9,0.5,2.5h4c-0.5-0.6-0.6-2.8-0.6-3.5
			c-0.1-1.5-0.6-3.3-2.2-3.7v0c1.6-0.6,2.4-2.2,2.4-3.9c0-3.1-2.7-4.3-5.4-4.3h-7.9V103.5z M50.6,91.3h3.2c1.1,0,2,0.5,2,1.7
			c0,1.2-0.6,1.8-1.9,1.8h-3.4V91.3z"/>
		<path class="st0" d="M37.7,82c5.1,0,7.9-3.7,7.9-8.4c0-4.7-2.9-8.4-7.9-8.4c-5.1,0-7.9,3.7-7.9,8.4C29.8,78.3,32.7,82,37.7,82z
			 M37.7,68.9c2.7,0,3.7,2.4,3.7,4.8c0,2.4-1,4.8-3.7,4.8c-2.7,0-3.7-2.4-3.7-4.8C34,71.3,35,68.9,37.7,68.9z"/>
		<polygon class="st0" points="30.5,103.5 34.5,103.5 34.5,91.6 39.1,91.6 39.1,88.1 25.9,88.1 25.9,91.6 30.5,91.6 		"/>
		<path class="st0" d="M33.4,109.5l-5.5,14.7h3.9l0.9-2.6h5.1l0.9,2.6h4l-5.5-14.7H33.4z M33.7,118.7l1.7-5.1h0l1.6,5.1H33.7z"/>
		<path class="st0" d="M20.9,73.6c0-5-2.9-8-7.9-8H6.1v16.1H13C17.9,81.7,20.9,78.9,20.9,73.6z M10.2,78.1v-8.9h2
			c2.9,0,4.4,1.4,4.4,4.4c0,3.2-1.3,4.5-4.4,4.5H10.2z"/>
		<path class="st0" d="M12.5,100.8c-1.7,0-2.8-0.6-2.9-2.4h-4c0,4,3.2,5.5,6.7,5.5c3.4,0,6.7-1.2,6.7-5.2c0-2.8-2.2-3.8-4.5-4.5
			c-2.2-0.6-4.5-0.8-4.5-2c0-1,1.1-1.3,1.9-1.3c1.2,0,2.5,0.5,2.5,1.9h4c0-3.5-3.1-5-6.2-5c-2.9,0-6.3,1.3-6.3,4.7
			c0,2.8,2.3,3.8,4.5,4.4c2.2,0.6,4.4,0.9,4.4,2.3C15,100.3,13.7,100.8,12.5,100.8z"/>
		<polygon class="st0" points="18.8,113 18.8,124.2 22.4,124.2 22.4,109.5 16.8,109.5 14.3,119.3 14.2,119.3 11.7,109.5 6.1,109.5 
			6.1,124.2 9.7,124.2 9.7,113 9.7,113 12.8,124.2 15.7,124.2 18.8,113 		"/>
		<path class="st0" d="M61.4,113.6c0-3-2.5-4.1-5.1-4.1h-7.5v14.7h3.8v-5.3h2.9c1.8,0,2,1.5,2.1,3c0,0.4,0.1,1.9,0.4,2.3h3.8
			c-0.5-0.5-0.6-2.7-0.6-3.3c-0.1-1.4-0.6-3.1-2.1-3.5v0C60.6,116.7,61.4,115.2,61.4,113.6z M55.8,115.9h-3.2v-3.3h3
			c1.1,0,1.9,0.5,1.9,1.6C57.5,115.3,56.9,115.9,55.8,115.9z"/>
		<polygon class="st0" points="118.8,88.1 105.6,88.1 105.6,91.6 110.2,91.6 110.2,103.5 114.2,103.5 114.2,91.6 118.8,91.6 		"/>
		<polygon class="st0" points="114.4,124.2 114.4,112.8 118.8,112.8 118.8,109.5 106.2,109.5 106.2,112.8 110.6,112.8 110.6,124.2 
					"/>
	</g>
	<g>
		<path class="st0" d="M6.1,129.9H9v8.8h5.3v2.5H6.1V129.9z"/>
		<path class="st0" d="M20.9,129.6c3.6,0,5.6,2.6,5.6,5.9c0,3.3-2,5.9-5.6,5.9c-3.6,0-5.6-2.6-5.6-5.9
			C15.3,132.3,17.3,129.6,20.9,129.6z M20.9,138.9c1.9,0,2.6-1.7,2.6-3.4c0-1.7-0.7-3.4-2.6-3.4c-1.9,0-2.6,1.7-2.6,3.4
			C18.3,137.2,19,138.9,20.9,138.9z"/>
		<path class="st0" d="M30.5,137.4c0.1,1.3,0.9,1.8,2.1,1.8c0.9,0,1.8-0.3,1.8-1.2c0-1-1.6-1.2-3.3-1.6c-1.6-0.5-3.3-1.2-3.3-3.3
			c0-2.5,2.5-3.4,4.6-3.4c2.3,0,4.5,1.1,4.5,3.6h-3c0-1-0.9-1.4-1.8-1.4c-0.6,0-1.4,0.2-1.4,1c0,0.9,1.6,1,3.3,1.5
			c1.6,0.5,3.3,1.2,3.3,3.3c0,2.9-2.4,3.8-4.9,3.8c-2.6,0-4.9-1.1-4.9-4H30.5z"/>
		<path class="st0" d="M46.3,129.9h3l4.2,11.3h-3.1l-0.7-2h-3.9l-0.7,2h-3L46.3,129.9z M46.5,137h2.6l-1.3-4h0L46.5,137z"/>
		<path class="st0" d="M54.9,129.9h3l3.9,7h0v-7h2.8v11.3h-3l-3.9-7.1h0v7.1h-2.8V129.9z"/>
		<path class="st0" d="M76.9,141.2H75l-0.2-1.2c-0.8,1.1-2.1,1.5-3.2,1.5c-3.4,0-5.6-2.6-5.6-5.9c0-3.3,2.2-5.9,5.6-5.9
			c2.3,0,4.9,1.3,5.1,4.1h-2.9c-0.1-1-1-1.6-2.2-1.6c-1.9,0-2.6,1.7-2.6,3.4c0,1.7,0.7,3.4,2.6,3.4c1.5,0,2.4-0.7,2.6-1.7h-2.1V135
			h4.8V141.2z"/>
		<path class="st0" d="M78.5,129.9h9v2.4h-6.1v2H87v2.3h-5.6v2.2h6.2v2.5h-9.2V129.9z"/>
		<path class="st0" d="M89.2,129.9h2.9v8.8h5.3v2.5h-8.2V129.9z"/>
		<path class="st0" d="M98.9,129.9h9v2.4h-6.1v2h5.6v2.3h-5.6v2.2h6.2v2.5h-9.2V129.9z"/>
		<path class="st0" d="M112.2,137.4c0.1,1.3,0.9,1.8,2.1,1.8c0.9,0,1.8-0.3,1.8-1.2c0-1-1.6-1.2-3.3-1.6c-1.6-0.5-3.3-1.2-3.3-3.3
			c0-2.5,2.5-3.4,4.6-3.4c2.3,0,4.5,1.1,4.5,3.6h-3c0-1-0.9-1.4-1.8-1.4c-0.6,0-1.4,0.2-1.4,1c0,0.9,1.6,1,3.3,1.5
			c1.6,0.5,3.3,1.2,3.3,3.3c0,2.9-2.4,3.8-4.9,3.8c-2.6,0-4.9-1.1-4.9-4H112.2z"/>
	</g>
</g>
</svg>
