<?xml version="1.0" encoding="utf-8"?>
<!-- Generator: Adobe Illustrator 20.1.0, SVG Export Plug-In . SVG Version: 6.00 Build 0)  -->
<svg version="1.1" id="Layer_1" xmlns="http://www.w3.org/2000/svg" xmlns:xlink="http://www.w3.org/1999/xlink" x="0px" y="0px"
	 viewBox="0 0 176 217" style="enable-background:new 0 0 176 217;" xml:space="preserve">
<g>
	<path d="M159.5,93.4h-4.7v5.2h5c1.7,0,2.7-1,2.7-2.7C162.5,94.2,161.2,93.4,159.5,93.4z"/>
	<path d="M79.2,127.5c0-1.7-1.3-2.4-2.9-2.4h-4.5v5h4.8C78.3,130.1,79.2,129.2,79.2,127.5z"/>
	<path d="M53.5,106.9c3.8,0,5.3-3.4,5.3-6.8c0-3.4-1.5-6.8-5.3-6.8s-5.3,3.4-5.3,6.8C48.2,103.5,49.7,106.9,53.5,106.9z"/>
	<polygon points="50.2,156.7 47.8,164 52.6,164 50.3,156.7 	"/>
	<path d="M23.6,100c0-4.2-2.2-6.2-6.3-6.2h-2.8v12.6h2.8C21.8,106.3,23.6,104.6,23.6,100z"/>
	<path d="M78.8,155.3h-4.3v4.7h4.6c1.6,0,2.5-0.9,2.4-2.5C81.5,156,80.3,155.3,78.8,155.3z"/>
	<polygon points="83.3,185.9 81.1,192.6 85.5,192.6 83.4,185.9 	"/>
	<path d="M103.2,184.5h-3.4v4.9h3.4c1.6,0,2.7-0.6,2.7-2.4S104.7,184.5,103.2,184.5z"/>
	<path d="M122,184.4c-3.3,0-4.5,2.8-4.5,5.7c0,2.8,1.3,5.7,4.5,5.7c3.3,0,4.5-2.8,4.5-5.7C126.5,187.3,125.2,184.4,122,184.4z"/>
	<path d="M142.6,184.5h-4v4.3h4.2c1.5,0,2.3-0.8,2.3-2.2C145.1,185.1,144,184.5,142.6,184.5z"/>
	<path d="M87.8,0L0,84.8v132.3h176v-133L87.8,0z M140.7,158.9v4.2h-10.2v4H142v4.6h-16.9v-20.8h16.6v4.4h-11.2v3.6H140.7z
		 M138.8,129v4.4h-10.7v4.1h12v4.9h-17.7v-21.8h17.4v4.5h-11.7v3.9H138.8z M114,88.6h18.2v4.8H120v4h11.2v4.6H120v4.4h12.6v5.1H114
		V88.6z M108.7,150.9h6.8l-7.7,8.2l8.6,12.6h-6.7l-5.6-8.7l-2.2,2.3v6.4h-5.5v-20.8h5.5v8L108.7,150.9z M111.6,129v4.4h-10.7v4.1
		H113v4.9H95.2v-21.8h17.4v4.5h-11.7v3.9H111.6z M83.3,88.6l4.5,17h0.1l4.4-17h6.2l-7.3,22.9h-6.9l-7.2-22.9H83.3z M86.7,167
		c0.1,0.9,0.2,3.9,0.9,4.7h-5.4c-0.5-0.7-0.5-2.7-0.6-3.3c-0.1-2.1-0.5-4.3-3-4.3h-4.1v7.6h-5.4v-20.8h10.7c3.7,0,7.3,1.7,7.3,5.9
		c0,2.2-1.1,4.4-3.4,5.2C85.9,162.5,86.5,165,86.7,167z M66.1,120.5h11c3.9,0,7.7,1.8,7.7,6.2c0,2.4-1.1,4.6-3.4,5.5v0.1
		c2.3,0.5,3,3.1,3.2,5.2c0,0.9,0.1,4.1,0.9,4.9h-5.6c-0.4-0.7-0.5-2.9-0.6-3.5c-0.2-2.2-0.5-4.5-3.2-4.5h-4.3v8h-5.7V120.5z
		 M53.5,88.2c7.2,0,11.3,5.3,11.3,11.9c0,6.6-4.1,11.9-11.3,11.9s-11.2-5.3-11.3-11.9C42.2,93.5,46.3,88.2,53.5,88.2z M36.7,120.6
		h18.7v4.9h-6.5v16.9h-5.7v-16.9h-6.5V120.6z M60.8,171.7h-5.7l-1.3-3.7h-7.3l-1.3,3.7h-5.6l7.8-20.8H53L60.8,171.7z M8.6,88.7h9.8
		c7,0,11.2,4.2,11.2,11.3c0,7.4-4.3,11.5-11.2,11.5H8.6V88.7z M15,133c-3.1-0.9-6.4-2.3-6.4-6.3c0-4.7,4.8-6.6,8.9-6.6
		c4.4,0,8.8,2.1,8.8,7h-5.7c0.1-2-1.7-2.6-3.5-2.6c-1.3,0-2.8,0.5-2.8,1.9c0,1.7,3.1,2,6.3,2.9c3.1,0.9,6.3,2.4,6.3,6.3
		c0,5.5-4.7,7.3-9.5,7.3c-5,0-9.5-2.2-9.5-7.8h5.8c0.1,2.6,1.7,3.4,4.1,3.4c1.7,0,3.5-0.6,3.5-2.3C21.3,134.3,18.2,133.9,15,133z
		 M16.4,200.3c-4.5,0-8.4-2-8.4-6.9h4.9c0.1,2.3,1.5,3,3.6,3c1.5,0,3.1-0.6,3.1-2c0-1.7-2.7-2-5.5-2.8c-2.7-0.8-5.6-2.1-5.6-5.6
		c0-4.3,4.3-5.9,7.9-5.9c3.8,0,7.7,1.9,7.7,6.2h-5c0.1-1.7-1.6-2.3-3.1-2.3c-1.1,0-2.4,0.3-2.4,1.6c0,1.4,2.8,1.7,5.6,2.5
		s5.6,2.1,5.6,5.8C24.8,198.7,20.6,200.3,16.4,200.3z M22.3,171.7h-4.2l-4.3-15.8h-0.1v15.8H8.6v-20.8h8l3.6,13.9l3.6-13.9h8v20.8
		h-5.1v-15.8L22.3,171.7z M32.2,199.8h-5v-19.3h5V199.8z M51.4,199.7h-5.2l-6.7-12v12h-4.8v-19.2h5.2l6.7,11.8v-11.8h4.8V199.7z
		 M72,199.6h-3.2l-0.3-2.1c-1.4,1.9-3.6,2.5-5.4,2.5c-5.8,0-9.6-4.4-9.6-10c0-5.5,3.8-10,9.6-10c4,0,8.2,2.2,8.7,7h-5
		c-0.2-1.6-1.8-2.6-3.8-2.6c-3.3,0-4.5,2.8-4.5,5.7c0,2.8,1.3,5.7,4.5,5.7c2.5,0,4.1-1.1,4.4-2.9h-3.5V189H72V199.6z M87.9,199.8
		l-1.2-3.5H80l-1.2,3.5h-5.2l7.2-19.3h5.1l7.2,19.3H87.9z M104,193.4h-4.1v6.4h-5v-19.3h9.1c3.6,0,6.9,1.6,7,6.3
		C111,191.5,108.2,193.4,104,193.4z M122,200.1c-6.1,0-9.5-4.4-9.5-10c0-5.5,3.4-10,9.5-10c6.1,0,9.5,4.4,9.5,10
		C131.5,195.6,128.1,200.1,122,200.1z M145.8,199.8c-0.5-0.7-0.5-2.6-0.6-3.1c-0.1-1.9-0.5-3.9-2.8-3.9h-3.8v7h-5v-19.3h9.8
		c3.4,0,6.7,1.5,6.7,5.4c0,2.1-1,4.1-3,4.9c2,0.5,2.6,2.8,2.9,4.7c0,0.8,0.1,3.6,0.8,4.3H145.8z M168.5,199.7h-15.6v-19.2h15.3v4
		h-10.3v3.4h9.5v3.9h-9.5v3.6h10.6V199.7z M168.5,155.6h-6.2v16.1h-5.4v-16.1h-6.2v-4.7h17.8V155.6z M168.5,125.5H162v16.9h-5.7
		v-16.9h-6.5v-4.9h18.7V125.5z M163.3,111.5c-0.5-0.7-0.6-3-0.7-3.6c-0.1-2.3-0.5-4.7-3.3-4.7h-4.5v8.3h-5.9V88.7h11.6
		c4,0,8,1.8,8,6.4c0,2.4-1.2,4.8-3.6,5.7v0.1c2.4,0.6,3.1,3.3,3.3,5.5c0.1,0.9,0.2,4.3,1,5.1H163.3z"/>
</g>
<g id="Layer_2">
</g>
</svg>
